<svg width="469" height="726" viewBox="0 0 469 726" fill="none" xmlns="http://www.w3.org/2000/svg">
<path d="M460.5 433.862V431.42L459.204 429.351L441.757 401.489L426.053 376.411V406V506.246H282.947V430.063V427.305L281.329 425.073L263.881 401.01L248.5 379.797V406V642.405V644.944L249.893 647.067L267.34 673.662L282.947 697.453V669V538.444H426.053V642.405V644.944L427.445 647.067L444.893 673.662L460.5 697.453V669V433.862Z" stroke="black" stroke-width="17"/>
<path d="M213.531 41.5593L198.5 23.5175V47V323V331.5H207H371.691H374.517L376.78 329.808L399.089 313.13L419.566 297.822H394H234V69.2069V66.1301L232.031 63.7662L213.531 41.5593Z" stroke="black" stroke-width="17"/>
<path d="M84.0979 667.045L84.1876 667.094L84.2785 667.141C98.8374 674.712 114.451 678.5 131 678.5C157.67 678.5 179.222 670.934 194.1 654.506C208.855 638.215 215.5 614.739 215.5 585.6V376V365.654L205.351 367.662L86.5506 391.162L84.3691 391.593L82.6784 393.038L51.0784 420.038L28.3337 439.471L57.8988 434.9L178.1 416.315V585.6C178.1 607.051 173.594 621.343 166.135 630.081L166.129 630.088L166.124 630.095C159.167 638.279 148.055 643.1 131 643.1C119.899 643.1 109.751 640.528 100.408 635.414C91.2903 630.012 83.1477 622.176 76.0471 611.647L74.5414 609.415L72.0247 608.456L46.0247 598.556L22.0087 589.412L35.8352 611.073C40.0034 617.604 48.2155 629.327 57.0686 640.367C61.4996 645.893 66.1786 651.358 70.6619 655.96C75.003 660.415 79.6807 664.611 84.0979 667.045Z" stroke="black" stroke-width="17"/>
<path d="M82.8 196.5H74.3V205V485V493.5H82.8H193.6C223.856 493.5 250.997 487.247 274.794 474.503C298.765 461.809 317.539 444.211 330.905 421.746L330.917 421.726L330.929 421.706C344.296 398.953 350.9 373.309 350.9 345C350.9 316.701 344.3 291.178 330.917 268.674C317.559 245.946 298.785 228.202 274.795 215.497C250.998 202.753 223.856 196.5 193.6 196.5H82.8ZM256.437 246.52L256.477 246.541L256.517 246.561C274.867 255.984 288.833 269.135 298.646 286.063C308.478 303.022 313.5 322.586 313.5 345C313.5 367.414 308.478 386.978 298.646 403.937C288.829 420.873 274.85 434.168 256.478 443.859C238.14 453.267 216.723 458.1 192 458.1H111.7V231.9H192C216.707 231.9 238.107 236.859 256.437 246.52Z" stroke="black" stroke-width="17"/>
</svg>
